<?xml version="1.0" encoding="UTF-8"?>
<svg id="_レイヤー_1" data-name=" レイヤー 1" xmlns="http://www.w3.org/2000/svg" width="150" height="55.09" viewBox="0 0 150 55.09">
  <defs>
    <style>
      .cls-1 {
        fill: #4a3819;
      }

      .cls-2 {
        fill: #e6e5e3;
      }
    </style>
  </defs>
  <g>
    <g>
      <path class="cls-2" d="M13.65,45.6h5.1v-3.15c0-.56,0-.94-.11-1.12-.04-.15-.15-.26-.34-.34-.22-.11-.49-.19-.75-.19h-.38v-.3h4.69v.3h-.38c-.26,0-.49.07-.75.19-.19.07-.3.22-.34.38-.08.19-.08.53-.08,1.09v7.09c0,.56,0,.94.11,1.09.04.15.15.26.34.34.22.11.49.19.75.19h.38v.3h-4.69v-.3h.38c.45,0,.79-.15.97-.41.15-.19.19-.6.19-1.24v-3.34h-5.1v3.34c0,.56,0,.94.11,1.09.04.15.15.26.34.34.22.11.49.19.75.19h.41v.3h-4.69v-.3h.38c.45,0,.79-.15.98-.41.11-.19.19-.6.19-1.24v-7.09c0-.56,0-.94-.11-1.12-.04-.15-.15-.26-.34-.34-.23-.11-.49-.19-.75-.19h-.38v-.3h4.69v.3h-.41c-.26,0-.49.07-.75.19-.15.07-.3.22-.34.38-.08.19-.11.53-.11,1.09v3.15l.04.08Z"/>
      <path class="cls-2" d="M29.66,43.84c1.12,0,2.03.41,2.7,1.28.56.71.86,1.57.86,2.51s-.15,1.35-.49,2.02-.75,1.2-1.31,1.54c-.56.34-1.16.52-1.88.52-1.12,0-1.99-.45-2.66-1.35-.56-.75-.82-1.57-.82-2.51s.15-1.35.49-2.03.79-1.16,1.31-1.5c.56-.34,1.12-.49,1.76-.49h.04ZM29.4,44.36c-.3,0-.56.07-.86.26s-.53.45-.71.9c-.19.41-.26.97-.26,1.65,0,1.09.22,2.02.64,2.77.41.79.97,1.16,1.69,1.16s.94-.23,1.28-.64c.34-.41.53-1.16.53-2.21s-.3-2.36-.86-3.11c-.38-.53-.86-.79-1.46-.79h.04Z"/>
      <path class="cls-2" d="M44.1,44.06v4.5c0,.86,0,1.39.07,1.57.04.19.11.34.19.41.07.07.19.11.3.11s.34-.04.56-.15l.11.3-2.21.9h-.38v-1.57c-.64.68-1.12,1.12-1.46,1.31s-.68.26-1.05.26-.79-.11-1.09-.38c-.3-.23-.53-.56-.64-.94-.11-.38-.19-.9-.19-1.61v-3.3c0-.34-.04-.6-.11-.71-.07-.15-.19-.22-.34-.3-.15-.07-.41-.11-.79-.11v-.3h2.59v4.95c0,.68.11,1.12.38,1.35.22.23.53.34.86.34s.49-.07.79-.23.64-.41,1.05-.82v-4.2c0-.41-.07-.71-.22-.86s-.49-.22-.97-.22v-.3h2.55Z"/>
      <path class="cls-2" d="M53.96,43.84v2.51h-.26c-.19-.79-.45-1.31-.79-1.61-.34-.3-.71-.41-1.24-.41s-.68.11-.9.3-.34.41-.34.68.07.56.26.79c.15.22.49.45,1.01.71l1.16.56c1.09.53,1.65,1.24,1.65,2.1s-.26,1.2-.75,1.61c-.52.41-1.09.6-1.73.6s-.98-.07-1.54-.23c-.19-.04-.34-.07-.45-.07s-.23.07-.3.23h-.26v-2.62h.26c.15.75.45,1.31.86,1.69s.9.56,1.43.56.68-.11.9-.34.34-.49.34-.79-.11-.68-.38-.94-.79-.56-1.57-.98c-.79-.38-1.27-.75-1.54-1.05-.23-.3-.38-.71-.38-1.16s.23-1.12.64-1.54c.41-.41.98-.6,1.61-.6s.64.07,1.05.19c.26.07.45.11.56.11s.15,0,.19-.07c.04-.04.11-.11.19-.26h.26l.04.04Z"/>
      <path class="cls-2" d="M60.15,46.84c0,1.09.26,1.95.79,2.59.52.64,1.16.94,1.91.94s.9-.15,1.27-.41c.38-.26.68-.71.9-1.39l.26.15c-.11.75-.45,1.43-.98,2.02-.56.6-1.24.9-2.06.9s-1.65-.34-2.29-1.05c-.64-.68-.94-1.61-.94-2.78s.34-2.25.98-2.96c.64-.71,1.46-1.05,2.44-1.05s1.5.26,2.06.82c.52.56.79,1.28.79,2.21h-5.14ZM60.15,46.39h3.41c0-.49-.07-.82-.19-1.01-.15-.3-.34-.53-.6-.71-.26-.19-.56-.26-.82-.26-.45,0-.86.19-1.2.53s-.56.82-.6,1.46Z"/>
      <path class="cls-2" d="M69.71,47.14h4.16v1.24h-4.16v-1.24Z"/>
      <path class="cls-2" d="M85.5,45.86c.75.15,1.31.41,1.69.79.52.49.79,1.09.79,1.8s-.19,1.05-.52,1.57-.82.86-1.43,1.09c-.6.23-1.5.34-2.74.34h-5.18v-.3h.41c.45,0,.79-.15.98-.45.11-.19.19-.6.19-1.2v-7.09c0-.68-.07-1.12-.23-1.28-.23-.22-.52-.34-.94-.34h-.41v-.3h4.73c.9,0,1.57.07,2.14.19.82.19,1.43.53,1.84,1.01.41.49.64,1.05.64,1.69s-.15,1.05-.49,1.46c-.34.45-.82.75-1.46.97v.04ZM81.26,45.45c.19.04.41.07.68.07h.86c.79,0,1.39-.07,1.76-.26.41-.19.71-.41.9-.79.23-.34.3-.75.3-1.16,0-.64-.26-1.2-.79-1.65-.52-.45-1.27-.68-2.29-.68s-1.01.07-1.46.19v4.2l.04.08ZM81.26,50.66c.64.15,1.24.23,1.84.23.98,0,1.73-.23,2.21-.68.52-.45.75-.98.75-1.61s-.11-.82-.34-1.24c-.23-.38-.6-.71-1.12-.94s-1.16-.34-1.95-.34h-.86c-.23,0-.41,0-.56.07v4.5h.04Z"/>
      <path class="cls-2" d="M94.88,43.84v1.65c.64-1.12,1.24-1.65,1.91-1.65s.52.07.75.26c.19.19.3.38.3.64s-.08.38-.23.53-.3.22-.49.22-.41-.07-.64-.26-.41-.26-.52-.26-.19.04-.3.15c-.23.22-.49.6-.75,1.09v3.56c0,.41.04.71.15.94.07.15.19.26.38.38s.45.15.75.15v.3h-3.79v-.3c.38,0,.68-.07.82-.19.15-.07.23-.23.3-.41,0-.07.04-.34.04-.79v-2.85c0-.86,0-1.39-.04-1.54s-.11-.3-.19-.38-.23-.11-.34-.11-.34.04-.56.11l-.07-.3,2.25-.9h.34l-.07-.04Z"/>
      <path class="cls-2" d="M104.06,43.84v5.96c0,.45,0,.79.11.94s.15.26.3.34.38.11.71.11v.3h-3.6v-.3c.38,0,.6,0,.71-.11s.23-.19.3-.34c.08-.15.11-.49.11-.94v-2.85c0-.79,0-1.31-.08-1.57-.04-.19-.11-.3-.19-.38s-.19-.11-.34-.11-.34.04-.56.11l-.11-.3,2.21-.9h.34l.08.04ZM103.42,39.97c.23,0,.41.07.56.22s.23.34.23.56-.08.41-.23.6c-.15.15-.34.22-.56.22s-.41-.07-.6-.22c-.15-.15-.23-.34-.23-.6s.08-.41.23-.56.34-.22.6-.22Z"/>
      <path class="cls-2" d="M114.67,50.62c-.38.38-.71.64-1.05.82s-.71.26-1.12.26c-.83,0-1.5-.34-2.1-1.01s-.9-1.54-.9-2.59.34-2.03,1.01-2.93c.67-.86,1.54-1.31,2.59-1.31s1.2.22,1.61.64v-1.35c0-.86,0-1.35-.08-1.57-.04-.19-.11-.34-.19-.41s-.19-.11-.34-.11-.34.04-.56.11l-.11-.3,2.21-.9h.38v8.55c0,.86,0,1.39.08,1.57.04.19.11.34.19.41s.19.11.3.11.34-.04.6-.15l.08.3-2.21.9h-.38v-1.05h0ZM114.67,50.06v-3.82c0-.38-.11-.71-.3-1.01-.15-.3-.38-.53-.64-.68s-.52-.22-.79-.22c-.49,0-.9.22-1.27.64-.49.56-.75,1.39-.75,2.47s.23,1.91.71,2.51c.49.56,1.01.86,1.58.86s.98-.26,1.42-.75h.04Z"/>
      <path class="cls-2" d="M123,48.79c-.45-.23-.79-.52-1.05-.94s-.38-.82-.38-1.31c0-.75.26-1.35.83-1.88s1.27-.79,2.14-.79,1.31.19,1.84.53h1.99s.08,0,.08.07c0,.04.04.15.04.26s0,.22-.04.3l-.08.07h-1.39c.3.38.45.9.45,1.5s-.26,1.28-.79,1.76c-.52.49-1.24.75-2.14.75s-.75-.04-1.12-.15c-.23.19-.41.38-.49.52-.08.15-.11.3-.11.38s.04.19.15.26c.08.07.26.15.52.19.15,0,.52.04,1.12.07,1.12,0,1.84.07,2.17.11.49.07.9.26,1.2.56.3.3.45.68.45,1.12s-.3,1.16-.86,1.73c-.83.79-1.95,1.16-3.3,1.16s-1.91-.23-2.62-.71c-.41-.26-.6-.56-.6-.82s0-.26.08-.38c.08-.19.26-.49.56-.82.04-.04.3-.34.83-.86-.26-.15-.49-.3-.6-.45-.11-.15-.19-.26-.19-.45s.08-.41.23-.68.52-.6,1.05-1.09l.04-.04ZM122.92,51.49c-.26.26-.45.52-.56.75s-.19.45-.19.64.15.49.45.68c.52.34,1.31.49,2.33.49s1.69-.19,2.14-.52.67-.71.67-1.09-.15-.49-.41-.6-.83-.19-1.65-.23c-1.2,0-2.14-.11-2.81-.19l.04.07ZM124.39,44.25c-.41,0-.75.15-1.01.49-.26.3-.41.79-.41,1.46s.19,1.5.56,1.99c.26.34.64.52,1.05.52s.75-.15,1.01-.45.41-.79.41-1.46-.19-1.54-.56-2.03c-.26-.34-.64-.53-1.05-.52Z"/>
      <path class="cls-2" d="M133.84,46.84c0,1.09.26,1.95.79,2.59s1.16.94,1.91.94.9-.15,1.27-.41.67-.71.9-1.39l.26.15c-.11.75-.45,1.43-.98,2.02-.56.6-1.24.9-2.06.9s-1.65-.34-2.29-1.05c-.64-.68-.94-1.61-.94-2.78s.34-2.25.98-2.96,1.46-1.05,2.44-1.05,1.5.26,2.06.82c.52.56.79,1.28.79,2.21h-5.14ZM133.84,46.39h3.41c0-.49-.08-.82-.19-1.01-.15-.3-.34-.53-.6-.71s-.56-.26-.83-.26c-.45,0-.86.19-1.2.53s-.56.82-.6,1.46h0Z"/>
    </g>
    <g>
      <path class="cls-1" d="M13.65,45.6h5.1v-3.15c0-.56,0-.94-.11-1.12-.04-.15-.15-.26-.34-.34-.22-.11-.49-.19-.75-.19h-.38v-.3h4.69v.3h-.38c-.26,0-.49.07-.75.19-.19.07-.3.22-.34.38-.08.19-.08.53-.08,1.09v7.09c0,.56,0,.94.11,1.09.04.15.15.26.34.34.22.11.49.19.75.19h.38v.3h-4.69v-.3h.38c.45,0,.79-.15.97-.41.15-.19.19-.6.19-1.24v-3.34h-5.1v3.34c0,.56,0,.94.11,1.09.04.15.15.26.34.34.22.11.49.19.75.19h.41v.3h-4.69v-.3h.38c.45,0,.79-.15.98-.41.11-.19.19-.6.19-1.24v-7.09c0-.56,0-.94-.11-1.12-.04-.15-.15-.26-.34-.34-.23-.11-.49-.19-.75-.19h-.38v-.3h4.69v.3h-.41c-.26,0-.49.07-.75.19-.15.07-.3.22-.34.38-.08.19-.11.53-.11,1.09v3.15l.04.08Z"/>
      <path class="cls-1" d="M29.66,43.84c1.12,0,2.03.41,2.7,1.28.56.71.86,1.57.86,2.51s-.15,1.35-.49,2.02-.75,1.2-1.31,1.54c-.56.34-1.16.52-1.88.52-1.12,0-1.99-.45-2.66-1.35-.56-.75-.82-1.57-.82-2.51s.15-1.35.49-2.03.79-1.16,1.31-1.5c.56-.34,1.12-.49,1.76-.49h.04ZM29.4,44.36c-.3,0-.56.07-.86.26s-.53.45-.71.9c-.19.41-.26.97-.26,1.65,0,1.09.22,2.02.64,2.77.41.79.97,1.16,1.69,1.16s.94-.23,1.28-.64c.34-.41.53-1.16.53-2.21s-.3-2.36-.86-3.11c-.38-.53-.86-.79-1.46-.79h.04Z"/>
      <path class="cls-1" d="M44.1,44.06v4.5c0,.86,0,1.39.07,1.57.04.19.11.34.19.41.07.07.19.11.3.11s.34-.04.56-.15l.11.3-2.21.9h-.38v-1.57c-.64.68-1.12,1.12-1.46,1.31s-.68.26-1.05.26-.79-.11-1.09-.38c-.3-.23-.53-.56-.64-.94-.11-.38-.19-.9-.19-1.61v-3.3c0-.34-.04-.6-.11-.71-.07-.15-.19-.22-.34-.3-.15-.07-.41-.11-.79-.11v-.3h2.59v4.95c0,.68.11,1.12.38,1.35.22.23.53.34.86.34s.49-.07.79-.23.64-.41,1.05-.82v-4.2c0-.41-.07-.71-.22-.86s-.49-.22-.97-.22v-.3h2.55Z"/>
      <path class="cls-1" d="M53.96,43.84v2.51h-.26c-.19-.79-.45-1.31-.79-1.61-.34-.3-.71-.41-1.24-.41s-.68.11-.9.3-.34.41-.34.68.07.56.26.79c.15.22.49.45,1.01.71l1.16.56c1.09.53,1.65,1.24,1.65,2.1s-.26,1.2-.75,1.61c-.52.41-1.09.6-1.73.6s-.98-.07-1.54-.23c-.19-.04-.34-.07-.45-.07s-.23.07-.3.23h-.26v-2.62h.26c.15.75.45,1.31.86,1.69s.9.56,1.43.56.68-.11.9-.34.34-.49.34-.79-.11-.68-.38-.94-.79-.56-1.57-.98c-.79-.38-1.27-.75-1.54-1.05-.23-.3-.38-.71-.38-1.16s.23-1.12.64-1.54c.41-.41.98-.6,1.61-.6s.64.07,1.05.19c.26.07.45.11.56.11s.15,0,.19-.07c.04-.04.11-.11.19-.26h.26l.04.04Z"/>
      <path class="cls-1" d="M60.15,46.84c0,1.09.26,1.95.79,2.59.52.64,1.16.94,1.91.94s.9-.15,1.27-.41c.38-.26.68-.71.9-1.39l.26.15c-.11.75-.45,1.43-.98,2.02-.56.6-1.24.9-2.06.9s-1.65-.34-2.29-1.05c-.64-.68-.94-1.61-.94-2.78s.34-2.25.98-2.96c.64-.71,1.46-1.05,2.44-1.05s1.5.26,2.06.82c.52.56.79,1.28.79,2.21h-5.14ZM60.15,46.39h3.41c0-.49-.07-.82-.19-1.01-.15-.3-.34-.53-.6-.71-.26-.19-.56-.26-.82-.26-.45,0-.86.19-1.2.53s-.56.82-.6,1.46Z"/>
      <path class="cls-1" d="M69.71,47.14h4.16v1.24h-4.16v-1.24Z"/>
      <path class="cls-1" d="M85.5,45.86c.75.15,1.31.41,1.69.79.52.49.79,1.09.79,1.8s-.19,1.05-.52,1.57-.82.86-1.43,1.09c-.6.23-1.5.34-2.74.34h-5.18v-.3h.41c.45,0,.79-.15.98-.45.11-.19.19-.6.19-1.2v-7.09c0-.68-.07-1.12-.23-1.28-.23-.22-.52-.34-.94-.34h-.41v-.3h4.73c.9,0,1.57.07,2.14.19.82.19,1.43.53,1.84,1.01.41.49.64,1.05.64,1.69s-.15,1.05-.49,1.46c-.34.45-.82.75-1.46.97v.04ZM81.26,45.45c.19.04.41.07.68.07h.86c.79,0,1.39-.07,1.76-.26.41-.19.71-.41.9-.79.23-.34.3-.75.3-1.16,0-.64-.26-1.2-.79-1.65-.52-.45-1.27-.68-2.29-.68s-1.01.07-1.46.19v4.2l.04.08ZM81.26,50.66c.64.15,1.24.23,1.84.23.98,0,1.73-.23,2.21-.68.52-.45.75-.98.75-1.61s-.11-.82-.34-1.24c-.23-.38-.6-.71-1.12-.94s-1.16-.34-1.95-.34h-.86c-.23,0-.41,0-.56.07v4.5h.04Z"/>
      <path class="cls-1" d="M94.88,43.84v1.65c.64-1.12,1.24-1.65,1.91-1.65s.52.07.75.26c.19.19.3.38.3.64s-.08.38-.23.53-.3.22-.49.22-.41-.07-.64-.26-.41-.26-.52-.26-.19.04-.3.15c-.23.22-.49.6-.75,1.09v3.56c0,.41.04.71.15.94.07.15.19.26.38.38s.45.15.75.15v.3h-3.79v-.3c.38,0,.68-.07.82-.19.15-.07.23-.23.3-.41,0-.07.04-.34.04-.79v-2.85c0-.86,0-1.39-.04-1.54s-.11-.3-.19-.38-.23-.11-.34-.11-.34.04-.56.11l-.07-.3,2.25-.9h.34l-.07-.04Z"/>
      <path class="cls-1" d="M104.06,43.84v5.96c0,.45,0,.79.11.94s.15.26.3.34.38.11.71.11v.3h-3.6v-.3c.38,0,.6,0,.71-.11s.23-.19.3-.34c.08-.15.11-.49.11-.94v-2.85c0-.79,0-1.31-.08-1.57-.04-.19-.11-.3-.19-.38s-.19-.11-.34-.11-.34.04-.56.11l-.11-.3,2.21-.9h.34l.08.04ZM103.42,39.97c.23,0,.41.07.56.22s.23.34.23.56-.08.41-.23.6c-.15.15-.34.22-.56.22s-.41-.07-.6-.22c-.15-.15-.23-.34-.23-.6s.08-.41.23-.56.34-.22.6-.22Z"/>
      <path class="cls-1" d="M114.67,50.62c-.38.38-.71.64-1.05.82s-.71.26-1.12.26c-.83,0-1.5-.34-2.1-1.01s-.9-1.54-.9-2.59.34-2.03,1.01-2.93c.67-.86,1.54-1.31,2.59-1.31s1.2.22,1.61.64v-1.35c0-.86,0-1.35-.08-1.57-.04-.19-.11-.34-.19-.41s-.19-.11-.34-.11-.34.04-.56.11l-.11-.3,2.21-.9h.38v8.55c0,.86,0,1.39.08,1.57.04.19.11.34.19.41s.19.11.3.11.34-.04.6-.15l.08.3-2.21.9h-.38v-1.05h0ZM114.67,50.06v-3.82c0-.38-.11-.71-.3-1.01-.15-.3-.38-.53-.64-.68s-.52-.22-.79-.22c-.49,0-.9.22-1.27.64-.49.56-.75,1.39-.75,2.47s.23,1.91.71,2.51c.49.56,1.01.86,1.58.86s.98-.26,1.42-.75h.04Z"/>
      <path class="cls-1" d="M123,48.79c-.45-.23-.79-.52-1.05-.94s-.38-.82-.38-1.31c0-.75.26-1.35.83-1.88s1.27-.79,2.14-.79,1.31.19,1.84.53h1.99s.08,0,.08.07c0,.04.04.15.04.26s0,.22-.04.3l-.08.07h-1.39c.3.38.45.9.45,1.5s-.26,1.28-.79,1.76c-.52.49-1.24.75-2.14.75s-.75-.04-1.12-.15c-.23.19-.41.38-.49.52-.08.15-.11.3-.11.38s.04.19.15.26c.08.07.26.15.52.19.15,0,.52.04,1.12.07,1.12,0,1.84.07,2.17.11.49.07.9.26,1.2.56.3.3.45.68.45,1.12s-.3,1.16-.86,1.73c-.83.79-1.95,1.16-3.3,1.16s-1.91-.23-2.62-.71c-.41-.26-.6-.56-.6-.82s0-.26.08-.38c.08-.19.26-.49.56-.82.04-.04.3-.34.83-.86-.26-.15-.49-.3-.6-.45-.11-.15-.19-.26-.19-.45s.08-.41.23-.68.52-.6,1.05-1.09l.04-.04ZM122.92,51.49c-.26.26-.45.52-.56.75s-.19.45-.19.64.15.49.45.68c.52.34,1.31.49,2.33.49s1.69-.19,2.14-.52.67-.71.67-1.09-.15-.49-.41-.6-.83-.19-1.65-.23c-1.2,0-2.14-.11-2.81-.19l.04.07ZM124.39,44.25c-.41,0-.75.15-1.01.49-.26.3-.41.79-.41,1.46s.19,1.5.56,1.99c.26.34.64.52,1.05.52s.75-.15,1.01-.45.41-.79.41-1.46-.19-1.54-.56-2.03c-.26-.34-.64-.53-1.05-.52Z"/>
      <path class="cls-1" d="M133.84,46.84c0,1.09.26,1.95.79,2.59s1.16.94,1.91.94.9-.15,1.27-.41.67-.71.9-1.39l.26.15c-.11.75-.45,1.43-.98,2.02-.56.6-1.24.9-2.06.9s-1.65-.34-2.29-1.05c-.64-.68-.94-1.61-.94-2.78s.34-2.25.98-2.96,1.46-1.05,2.44-1.05,1.5.26,2.06.82c.52.56.79,1.28.79,2.21h-5.14ZM133.84,46.39h3.41c0-.49-.08-.82-.19-1.01-.15-.3-.34-.53-.6-.71s-.56-.26-.83-.26c-.45,0-.86.19-1.2.53s-.56.82-.6,1.46h0Z"/>
    </g>
  </g>
  <path class="cls-1" d="M21.34,0L7.01,9.98v21.34h28.61V10.09L21.34,0ZM15.41,18.86h-2.47v-4.99h2.47v4.99ZM22.24,18.86h-2.47v-4.99h2.47v4.99ZM29.74,18.86h-2.47v-4.99h2.47v4.99Z"/>
  <rect class="cls-1" y="30.04" width="150" height="1.28"/>
  <rect class="cls-1" x="46.31" y="5.74" width=".45" height="24.34"/>
  <rect class="cls-1" x="50.66" y="15.97" width=".45" height="14.1"/>
  <rect class="cls-1" x="54.98" y="18.6" width=".45" height="11.44"/>
  <rect class="cls-1" x="59.29" y="20.85" width=".45" height="9.22"/>
  <rect class="cls-1" x="63.64" y="22.58" width=".45" height="7.5"/>
  <g>
    <rect x="67.99" y="23.74" width=".38" height="6.3"/>
    <rect class="cls-1" x="67.99" y="23.74" width=".38" height="6.3"/>
  </g>
  <g>
    <rect x="72.34" y="24.82" width=".38" height="5.25"/>
    <rect class="cls-1" x="72.34" y="24.82" width=".38" height="5.25"/>
  </g>
  <rect class="cls-1" x="76.61" y="25.43" width=".45" height="4.61"/>
  <rect class="cls-1" x="80.96" y="25.43" width=".45" height="4.61"/>
  <rect class="cls-1" x="85.27" y="25.43" width=".45" height="4.61"/>
  <g>
    <rect x="89.66" y="24.82" width=".38" height="5.25"/>
    <rect class="cls-1" x="89.66" y="24.82" width=".38" height="5.25"/>
  </g>
  <g>
    <rect x="93.98" y="24.04" width=".38" height="6.04"/>
    <rect class="cls-1" x="93.98" y="24.04" width=".38" height="6.04"/>
  </g>
  <rect class="cls-1" x="98.29" y="22.84" width=".45" height="7.24"/>
  <rect class="cls-1" x="102.6" y="21.49" width=".45" height="8.55"/>
  <rect class="cls-1" x="106.95" y="19.76" width=".45" height="10.31"/>
  <rect class="cls-1" x="111.26" y="17.44" width=".45" height="12.6"/>
  <rect class="cls-1" x="115.61" y="15.08" width=".45" height="14.96"/>
  <rect class="cls-1" x="119.92" y="5.74" width=".45" height="24.34"/>
  <path class="cls-1" d="M81.38,25.8c-5.62,0-10.54-.86-14.62-2.06-12.79-3.71-20.29-11.21-20.36-11.29l.3-.3c.07.08,7.5,7.5,20.21,11.17,11.7,3.41,30.45,4.2,53.14-11.21l.26.38c-14.96,10.16-28.24,13.35-38.93,13.35v-.04Z"/>
  <path class="cls-1" d="M138.52,5.4c0,2.1-1.69,3.79-3.79,3.79s-3.79-1.69-3.79-3.79,1.69-3.79,3.79-3.79,3.79,1.69,3.79,3.79"/>
  <path class="cls-1" d="M134.48,8.85c-.9,1.99-2.51,7.95-1.05,9.86,5.17,3.04,2.77-6.6,1.31-9.86"/>
  <path class="cls-1" d="M134.48,8.85c-.9,1.99-2.51,7.95-1.05,9.86,5.17,3.04,2.77-6.6,1.31-9.86"/>
  <path class="cls-1" d="M127.8,15.6c-.08,0-.15,0-.19-.08-.08-.11-.04-.22.04-.3,1.42-1.05,4.12-3.08,6.23-5.02.08-.08.23-.08.3,0,.08.08.08.23,0,.3-2.14,1.95-4.84,4.01-6.26,5.06-.04,0-.08.04-.11.04Z"/>
  <path class="cls-1" d="M142.05,16.39s-.08,0-.11-.04c-.56-.41-1.39-1.16-2.33-2.03-1.31-1.24-2.81-2.59-4.16-3.56-.11-.08-.11-.23-.04-.3.08-.11.23-.11.3-.04,1.35.98,2.89,2.36,4.2,3.6.94.86,1.76,1.61,2.29,2.03.11.08.11.22.04.3-.04.08-.11.08-.19.08v-.04Z"/>
  <path class="cls-1" d="M133.27,29.51c-.11,0-.19-.07-.23-.15v-.15c-.08-.11-.11-.22-.11-.34v-4.99c-.11-.71-.08-1.42.08-2.1,0-.6.04-3.11.04-3.83s.11-.22.23-.22.23.11.23.22c0,.6,0,3.19-.08,3.86-.15.67-.15,1.35-.08,2.03v4.95s.04.15.08.26v.15c.08.11,0,.22-.11.26h-.08l.04.04Z"/>
  <path class="cls-1" d="M136.73,29.51c-.11,0-.23-.11-.23-.22v-5.18c0-.64-.26-2.51-.49-4.01-.15-1.01-.26-1.88-.3-2.29,0-.11.08-.22.19-.22s.23.08.23.19c0,.41.15,1.28.3,2.25.23,1.61.49,3.41.49,4.05v5.18c0,.11-.11.22-.23.22l.04.04Z"/>
</svg>